<?xml version="1.0" encoding="UTF-8"?>
<svg version="1.1" xmlns="http://www.w3.org/2000/svg" width="450" height="450">
<path d="M0 0 C11.47674947 8.11866745 21.1595443 18.61950465 31.08032227 28.51245117 C32.67291398 30.09712677 34.26568212 31.68162508 35.85861206 33.26596069 C41.05658938 38.43790895 46.24928989 43.61513768 51.44140625 48.79296875 C53.23726279 50.58345917 55.03312502 52.37394388 56.82899284 54.16442299 C64.30074904 61.61458532 71.7711505 69.06610153 79.23768711 76.52149487 C81.16714592 78.44802491 83.09662125 80.37453841 85.02612305 82.30102539 C85.74530464 83.01908791 85.74530464 83.01908791 86.47901516 83.75165675 C94.24652913 91.50651593 102.02427861 99.25102512 109.80626143 106.99136194 C117.82443034 114.96697634 125.83280272 122.9523075 133.83253521 130.9464224 C138.31291708 135.42316384 142.79732333 139.89568573 147.29214668 144.35793114 C151.52132683 148.55689045 155.73830127 152.76774354 159.94652939 156.9876976 C161.4848205 158.52620822 163.02732977 160.0605158 164.57454109 161.59005547 C180.53665298 177.37985021 192.27788322 192.89133224 192.4375 216.1875 C192.45011543 233.29682305 187.76949176 246.9512578 175.86521912 259.61981201 C175.08648238 260.45527404 175.08648238 260.45527404 174.29201359 261.30761409 C167.4403063 268.61018245 160.35513668 275.68416734 153.28149414 282.77050781 C151.72430399 284.33397982 150.1672974 285.89763466 148.61045837 287.4614563 C143.5472074 292.54552385 138.47882631 297.62446108 133.41015625 302.703125 C131.6545905 304.46274499 129.89905621 306.22239638 128.14355278 307.98207855 C119.90055548 316.24406849 111.6551891 324.50368502 103.40687567 332.76036763 C102.46273519 333.70547657 101.5185976 334.65058841 100.57446289 335.59570312 C100.10616058 336.06448917 99.63785827 336.53327522 99.15536498 337.01626691 C91.5598592 344.62008362 83.97292395 352.23239248 76.38949496 359.84825173 C68.5689923 367.70192111 60.74072278 375.54778176 52.90537924 383.38664508 C48.52000553 387.77436059 44.13794821 392.16526752 39.76405525 396.56443024 C35.65152804 400.70033984 31.52945815 404.82650032 27.40011024 408.94561386 C25.89431028 410.45092105 24.39187309 411.95960157 22.89323807 413.47204208 C6.88973658 429.61459057 -8.53277751 441.89133286 -32.1875 442.125 C-57.73412237 442.20324094 -72.94767982 428.72392242 -90.19535625 411.59021711 C-92.37796865 409.41619204 -94.55828968 407.23988493 -96.73852539 405.06347656 C-98.32125637 403.48702203 -99.90417268 401.91075355 -101.48725891 400.33465576 C-106.65260623 395.1901988 -111.81275494 390.04054332 -116.97265625 384.890625 C-118.75734225 383.10999123 -120.54206063 381.32938991 -122.32681084 379.5488205 C-129.75201391 372.14045898 -137.17611463 364.73099586 -144.59653568 357.31784439 C-146.5139731 355.40231627 -148.43141609 353.48679372 -150.34887695 351.57128906 C-150.82534074 351.09530902 -151.30180452 350.61932898 -151.7927066 350.12892529 C-159.51310708 342.41682734 -167.24199412 334.71329339 -174.97445602 327.01329067 C-182.9410301 319.07988296 -190.89979799 311.13870687 -198.85156816 303.19045615 C-203.30528021 298.73908695 -207.76219053 294.29103905 -212.22734261 289.85114288 C-216.42805312 285.67381445 -220.61901647 281.48694211 -224.80293083 277.29279327 C-226.33242373 275.7628075 -227.86529149 274.23618621 -229.4019165 272.71336365 C-245.66425245 256.58886915 -258.0237984 241.2048496 -258.1875 217.3125 C-258.20923869 187.8300099 -239.5298209 171.26246606 -220.05322266 151.7512207 C-218.48632699 150.17804504 -216.91961573 148.60468568 -215.35307312 147.03115845 C-210.25193197 141.90917539 -205.14563723 136.79234611 -200.0390625 131.67578125 C-198.27142606 129.90409126 -196.50382143 128.13236955 -194.73624802 126.36061668 C-187.38270199 118.99023884 -180.02806021 111.62095779 -172.66973305 104.25535297 C-170.7706977 102.35440846 -168.87166801 100.4534583 -166.97265625 98.55249023 C-166.50079782 98.08014807 -166.0289394 97.6078059 -165.54278223 97.12115034 C-157.8922461 89.46230611 -150.25027821 81.79497155 -142.61182506 74.12407837 C-134.73711597 66.21620303 -126.85463367 58.31612905 -118.96508253 50.42305821 C-114.54839518 46.00402867 -110.13502596 41.58180503 -105.72981644 37.15133095 C-101.58693367 32.98506643 -97.43450824 28.82854952 -93.27480507 24.67908096 C-91.75771805 23.16248677 -90.24399461 21.64251854 -88.73407173 20.11879158 C-67.79534698 -1.0004816 -67.79534698 -1.0004816 -54.3125 -5.25 C-53.17683594 -5.62125 -52.04117188 -5.9925 -50.87109375 -6.375 C-33.84109898 -11.3485578 -15.20683424 -9.09864978 0 0 Z " fill="#F6F6F6" transform="translate(257.875,8.25)"/>
<path d="M0 0 C9.08979284 6.44925061 15.74055567 14.90000027 18 26 C18.08943437 27.84826886 18.12465111 29.69946486 18.12457275 31.54989624 C18.12713577 32.67948761 18.12969879 33.80907898 18.13233948 34.97290039 C18.13023972 36.2082251 18.12813995 37.4435498 18.12597656 38.71630859 C18.12884447 40.71906526 18.1317203 42.72182193 18.13489199 44.72457814 C18.13757134 46.87693823 18.13801692 49.02929042 18.13809967 51.18165207 C18.13924303 55.68051541 18.15210603 60.17929722 18.16766357 64.6781311 C18.17023643 65.43875803 18.17280928 66.19938496 18.1754601 66.98306119 C18.18072689 68.53862896 18.18601237 70.09419666 18.19131613 71.6497643 C18.22634482 82.1192237 18.25298727 92.58858255 18.25048828 103.05810547 C18.24889229 110.12451286 18.26511076 117.1906421 18.30119491 124.25696051 C18.31954216 127.98991483 18.32909791 131.72240553 18.31671906 135.45539474 C18.30515551 138.97693082 18.31727594 142.49764221 18.34635353 146.01906967 C18.35600265 147.90330583 18.34135798 149.78761945 18.32554626 151.67181396 C18.49267298 165.65051377 23.34146783 177.69496836 32.8046875 187.95703125 C43.46138064 198.10520998 56.71253688 201.54682182 71.08984375 201.25 C83.90279508 200.14929009 95.49643546 193.43096672 104 184 C112.60321703 172.14631939 115.83392856 159.55374994 113.53125 145.046875 C110.89513329 133.81199666 103.72839647 126.22644868 96 118 C98.93264434 115.62236545 101.77119537 114.13368878 105.25 112.6875 C116.61886968 107.59267409 124.56766854 99.77943412 129.2890625 88.1171875 C130.31641452 85.05771061 130.77010416 82.21854178 131 79 C131.0515625 78.32453125 131.103125 77.6490625 131.15625 76.953125 C131.50117916 68.84728976 129.07068054 61.42303643 126 54 C130.50802856 55.45823475 133.68043354 57.98510551 137.1875 61.0625 C137.75702393 61.55564697 138.32654785 62.04879395 138.91333008 62.55688477 C140.06992209 63.56118703 141.22384562 64.56857115 142.375 65.57910156 C143.8109928 66.83473229 145.26367591 68.07121952 146.71875 69.3046875 C156.57461853 77.81940936 164.45278421 87.76980982 171 99 C171.65871094 100.08410156 172.31742188 101.16820312 172.99609375 102.28515625 C186.873243 125.98033117 189.67832533 154.97275459 183.2578125 181.45703125 C175.0094798 212.33925947 155.6339213 239.44314961 127.92626953 255.71337891 C116.13786977 262.38907589 104.19174157 266.92371811 91 270 C89.90401489 270.26925293 89.90401489 270.26925293 88.78588867 270.54394531 C58.57713628 277.3952254 27.4601956 268.96109624 1.65380859 253.05371094 C-2.14909314 250.63072247 -5.61070052 247.96864174 -9 245 C-10.43085938 243.76636719 -10.43085938 243.76636719 -11.890625 242.5078125 C-35.09680943 222.13030656 -50.18033212 193.56136804 -52.2286377 162.53696823 C-52.57699738 153.64773192 -52.56849658 144.75692179 -52.53730202 135.86236644 C-52.52701213 131.99853015 -52.53660947 128.13472749 -52.54284668 124.27088928 C-52.5500696 117.798442 -52.54066966 111.32617893 -52.52148438 104.85375977 C-52.49964264 97.39962784 -52.50684117 89.94593246 -52.52879 82.49181074 C-52.54699901 76.04624059 -52.54947805 69.60080099 -52.53903532 63.15521342 C-52.53284109 59.32485298 -52.53185284 55.49469731 -52.54518127 51.66435051 C-52.55682318 48.0696674 -52.54856445 44.47554373 -52.52560425 40.88092041 C-52.51788764 38.95212042 -52.52959536 37.02327248 -52.54211426 35.09449768 C-52.42855617 23.28881587 -49.43844791 13.5215035 -41 5 C-29.07187656 -4.80423096 -14.00090297 -7.82105433 0 0 Z " fill="#D2841B" transform="translate(175,91)"/>
<path d="M0 0 C7.50898263 6.03752543 12.00899963 14.64349668 13.06640625 24.16015625 C13.48173242 34.54331055 10.88626931 42.23204583 4.1875 50.1875 C-3.04289603 57.68568847 -11.80719669 61.29789634 -22.125 61.8125 C-31.11735017 61.73148784 -38.72870766 58.11100071 -45.546875 52.3828125 C-53.44544123 43.97792792 -55.90925683 33.76828593 -55.65625 22.5390625 C-55.11602695 13.97652717 -50.4421734 6.4692476 -44.1796875 0.77734375 C-30.57936648 -9.54678658 -14.06984018 -9.51237783 0 0 Z " fill="#1A0D7E" transform="translate(280.25,133.6875)"/>
<path d="M0 0 C0.33 1.32 0.66 2.64 1 4 C0.01 4.33 -0.98 4.66 -2 5 C-2.73323796 7.01508358 -2.73323796 7.01508358 -3 9 C-3.66 9 -4.32 9 -5 9 C-5.144375 10.299375 -5.28875 11.59875 -5.4375 12.9375 C-5.875 16.875 -5.875 16.875 -7 18 C-7.10071797 19.76761181 -7.13076702 21.53927695 -7.13371277 23.30975342 C-7.13797775 24.46190842 -7.14224274 25.61406342 -7.14663696 26.8011322 C-7.14618378 28.076866 -7.14573059 29.35259979 -7.14526367 30.66699219 C-7.14825395 32.01548862 -7.15165617 33.3639842 -7.15544128 34.71247864 C-7.16430812 38.38879943 -7.16662078 42.06509697 -7.16725707 45.74142742 C-7.16796713 48.04161255 -7.1701008 50.34179175 -7.17275429 52.6419754 C-7.18202304 60.67749914 -7.18608808 68.71300625 -7.18530273 76.74853516 C-7.18470449 84.21744932 -7.19520229 91.68629065 -7.2110464 99.15518641 C-7.22418032 105.57744075 -7.22948405 111.9996715 -7.22884732 118.42193913 C-7.22859365 122.25259913 -7.23137079 126.08319472 -7.24202538 129.91384125 C-7.25180279 133.52863174 -7.25172047 137.14329765 -7.24450874 140.75809288 C-7.24298594 142.69624316 -7.2512457 144.63439368 -7.25994873 146.57252502 C-7.23510366 153.59747603 -6.67280888 160.26655864 -5.44116688 167.18619156 C-4.86633169 170.85255045 -4.8548349 174.29828989 -5 178 C-4.34 178 -3.68 178 -3 178 C-2.6596875 179.5778125 -2.6596875 179.5778125 -2.3125 181.1875 C-1.03707078 186.34467033 0.92972945 191.21085822 2.87890625 196.14453125 C3.63756784 198.0768714 4.34353173 200.03059519 5 202 C7.37625345 203.18391223 7.37625345 203.18391223 10 204 C10.99 204.33 11.98 204.66 13 205 C13.09796875 205.65226563 13.1959375 206.30453125 13.296875 206.9765625 C14.26486738 212.63431108 15.43491083 216.48422039 19 221 C18.67 221.66 18.34 222.32 18 223 C-6.14749539 195.9094178 -10.659992 163.84515769 -10.53730202 128.86236644 C-10.52701213 124.99853015 -10.53660947 121.13472749 -10.54284668 117.27088928 C-10.5500696 110.798442 -10.54066966 104.32617893 -10.52148438 97.85375977 C-10.49964264 90.39962784 -10.50684117 82.94593246 -10.52879 75.49181074 C-10.54699901 69.04624059 -10.54947805 62.60080099 -10.53903532 56.15521342 C-10.53284109 52.32485298 -10.53185284 48.49469731 -10.54518127 44.66435051 C-10.55682318 41.0696674 -10.54856445 37.47554373 -10.52560425 33.88092041 C-10.51788764 31.95212042 -10.52959536 30.02327248 -10.54211426 28.09449768 C-10.43287309 16.73761035 -8.0118048 8.19389127 0 0 Z " fill="#C18838" transform="translate(133,98)"/>
<path d="M0 0 C5.11942551 4.20524239 7.68138768 10.61276015 9 17 C9.08942269 18.84602432 9.12465112 20.69497821 9.12457275 22.54316711 C9.12841728 24.23538643 9.12841728 24.23538643 9.13233948 25.96179199 C9.13023972 27.19554565 9.12813995 28.42929932 9.12597656 29.70043945 C9.1288445 31.70075571 9.13172037 33.70107197 9.13489199 35.70138776 C9.13757141 37.85128956 9.13801692 40.00118345 9.13809967 42.15108681 C9.13924324 46.6460242 9.15210821 51.14088004 9.16766357 55.63578796 C9.17152285 56.77590197 9.17152285 56.77590197 9.1754601 57.93904859 C9.18072694 59.49353352 9.18601242 61.04801838 9.19131613 62.60250318 C9.22633663 73.06256974 9.25298857 83.5225359 9.25048828 93.98266602 C9.24889143 101.04285708 9.26513117 108.10276994 9.30119491 115.16287202 C9.31952945 118.89194584 9.3291094 122.62055604 9.31671906 126.34966469 C8.90739728 147.74480067 8.90739728 147.74480067 15 168 C14.01 168.33 13.02 168.66 12 169 C8.99440348 163.99067246 8.70658112 160.67276511 9 155 C8.34 155 7.68 155 7 155 C6.99761165 154.29377093 6.99522329 153.58754187 6.99276257 152.85991192 C6.93350973 135.63980268 6.85789424 118.41984215 6.76428509 101.19988537 C6.7194061 92.8722835 6.67997342 84.54472364 6.65356445 76.21704102 C6.63052019 68.95479871 6.59705094 61.69269024 6.55129844 54.43055421 C6.52745247 50.5887709 6.50866742 46.74711942 6.50238609 42.9052639 C6.49629587 39.28135025 6.47615607 35.65777353 6.44572449 32.03398514 C6.43288325 30.08594445 6.43450338 28.13782479 6.4367218 26.18974304 C6.35726554 18.6821796 5.38745536 12.12740963 3 5 C2.34 5 1.68 5 1 5 C0.67 3.35 0.34 1.7 0 0 Z " fill="#BB935E" transform="translate(184,100)"/>
<path d="M0 0 C1 2 1 2 0.125 5 C-1 8 -1 8 -2 10 C-2.99 10.33 -3.98 10.66 -5 11 C-4.67 11.66 -4.34 12.32 -4 13 C-6.31 13.66 -8.62 14.32 -11 15 C-11 15.66 -11 16.32 -11 17 C-10.34 17.66 -9.68 18.32 -9 19 C-9.66 19.99 -10.32 20.98 -11 22 C-11.66 22 -12.32 22 -13 22 C-12.649375 22.556875 -12.29875 23.11375 -11.9375 23.6875 C-10.76827359 26.57159181 -11.14660484 28.05190765 -12 31 C-12.33 31.66 -12.66 32.32 -13 33 C-12.34 33 -11.68 33 -11 33 C-8.55935413 38.64399358 -8.80710901 43.97751478 -9 50 C-9.33 50 -9.66 50 -10 50 C-10.14695312 49.31035156 -10.29390625 48.62070313 -10.4453125 47.91015625 C-13.26341035 36.10329803 -19.8112816 28.71643581 -28 20 C-25.06735566 17.62236545 -22.22880463 16.13368878 -18.75 14.6875 C-10.90620452 11.19439641 -5.19352471 6.81650119 0 0 Z " fill="#D2841D" transform="translate(299,189)"/>
<path d="M0 0 C0.99 0.33 1.98 0.66 3 1 C-10.44794288 14.36201354 -28.89261493 22.42742801 -47 27 C-47.99386719 27.30035156 -48.98773438 27.60070312 -50.01171875 27.91015625 C-66.89937261 32.46579688 -87.21583684 31.79547519 -104 27 C-104 26.67 -104 26.34 -104 26 C-102.9169458 26.03029297 -101.8338916 26.06058594 -100.71801758 26.09179688 C-96.63831365 26.20542444 -92.55854735 26.31666644 -88.47875977 26.42724609 C-86.72451056 26.47511408 -84.97027808 26.52359964 -83.21606445 26.57275391 C-73.14094356 26.8546157 -63.07995196 27.08251922 -53 27 C-53 26.34 -53 25.68 -53 25 C-51.824375 24.938125 -50.64875 24.87625 -49.4375 24.8125 C-34.00605174 23.02544652 -18.37833921 15.40996992 -7 5 C-5.01492052 3.97069953 -3.01885749 2.96136071 -1 2 C-0.67 1.34 -0.34 0.68 0 0 Z " fill="#BD935B" transform="translate(317,333)"/>
<path d="M0 0 C0.33 1.32 0.66 2.64 1 4 C0.01 4.33 -0.98 4.66 -2 5 C-2.73323796 7.01508358 -2.73323796 7.01508358 -3 9 C-3.66 9 -4.32 9 -5 9 C-5.185625 10.8253125 -5.185625 10.8253125 -5.375 12.6875 C-5.6262311 15.15793912 -5.99213485 16.98239208 -7.01084709 19.26301098 C-8.13207039 22.36543916 -8.24629321 24.73601678 -8.24050903 28.03010559 C-8.24325836 29.24020294 -8.24600769 30.45030029 -8.24884033 31.69706726 C-8.24164978 33.01624649 -8.23445923 34.33542572 -8.22705078 35.69458008 C-8.22648636 37.10416658 -8.22680384 38.51375368 -8.22793579 39.92333984 C-8.22850909 43.74322156 -8.21675852 47.56297741 -8.20278788 51.3828299 C-8.19027669 55.37733969 -8.18910971 59.37185243 -8.18673706 63.36637878 C-8.18052344 70.92754909 -8.1641142 78.48866148 -8.14403808 86.0498063 C-8.12167543 94.65918198 -8.11068473 103.26856044 -8.10064721 111.87795794 C-8.07974787 129.58533811 -8.04457417 147.2926644 -8 165 C-8.33 165 -8.66 165 -9 165 C-9.75709235 160.95081381 -10.12992077 157.11675802 -10.14717102 152.99958801 C-10.15432632 151.82084106 -10.16148163 150.64209412 -10.16885376 149.42762756 C-10.17154266 148.14802658 -10.17423157 146.8684256 -10.17700195 145.55004883 C-10.18327407 144.1778649 -10.18992152 142.80568264 -10.19691467 141.4335022 C-10.21786836 136.94135705 -10.22830884 132.4492119 -10.23828125 127.95703125 C-10.24233204 126.4051531 -10.24644906 124.85327512 -10.25063133 123.30139732 C-10.26966384 116.00836701 -10.28389897 108.71534669 -10.2922433 101.42229635 C-10.30200899 93.02764223 -10.32831908 84.63325225 -10.36874419 76.23869115 C-10.39898453 69.7339913 -10.41371964 63.22936685 -10.41702431 56.72459811 C-10.41936571 52.84703388 -10.42820665 48.96975246 -10.45348549 45.09226418 C-10.47691072 41.44038195 -10.48094222 37.78896588 -10.47072411 34.13702774 C-10.46999941 32.17464936 -10.48898811 30.21229387 -10.50878906 28.25001526 C-10.44222015 16.81445167 -8.06980589 8.25321057 0 0 Z " fill="#B49265" transform="translate(133,98)"/>
<path d="M0 0 C7.94274233 11.91411349 5.17294633 33.75772803 2.87060547 47.14819336 C0.00660698 61.46113161 -5.45880222 83.1024403 -17 93 C-17.39033395 89.58457791 -17.26340185 88.34242241 -15.125 85.5625 C-14.42375 84.716875 -13.7225 83.87125 -13 83 C-11.74443113 79.82078213 -11.74443113 79.82078213 -11 77 C-11.66 77 -12.32 77 -13 77 C-12.67 75.68 -12.34 74.36 -12 73 C-10.35 73 -8.7 73 -7 73 C-6.8659375 72.41863281 -6.731875 71.83726562 -6.59375 71.23828125 C-6.03428898 69.12926043 -5.32211152 67.20578377 -4.5 65.1875 C-3.07397777 61.49091809 -2.48223666 57.93826609 -2 54 C-1.505 53.505 -1.505 53.505 -1 53 C2.73081506 37.98008652 2.64445883 23.67525375 0.4375 8.42578125 C0.07136924 5.55884663 -0.08817741 2.88229911 0 0 Z " fill="#BB935D" transform="translate(357,218)"/>
<path d="M0 0 C2.88560541 2.13901227 5.48677316 4.4363646 8 7 C3.9666466 7 2.16482462 5.39120082 -1 3 C-1 2.34 -1 1.68 -1 1 C-2.58294782 0.94562393 -4.16644256 0.90703729 -5.75 0.875 C-6.63171875 0.85179688 -7.5134375 0.82859375 -8.421875 0.8046875 C-11.1135858 1.00860498 -12.69904974 1.63448279 -15 3 C-15.99 2.34 -16.98 1.68 -18 1 C-17.01 0.67 -16.02 0.34 -15 0 C-16.98 0 -18.96 0 -21 0 C-21.66 1.32 -22.32 2.64 -23 4 C-24.32 3.67 -25.64 3.34 -27 3 C-26.67 2.01 -26.34 1.02 -26 0 C-29.45411499 0.70079254 -29.45411499 0.70079254 -33 2 C-33.68268138 3.32520503 -34.3507041 4.65812182 -35 6 C-38.125 6.75 -38.125 6.75 -41 7 C-41 6.34 -41 5.68 -41 5 C-29.00125117 -4.97118248 -14.11784786 -7.58342602 0 0 Z " fill="#C58B3F" transform="translate(175,91)"/>
<path d="M0 0 C4.77749522 1.51197883 7.92598654 4.19875192 11.625 7.4375 C12.48351562 8.17323242 12.48351562 8.17323242 13.359375 8.92382812 C15.99702081 11.19649736 18.59303584 13.4820765 21 16 C18.03 15.505 18.03 15.505 15 15 C15 14.34 15 13.68 15 13 C12.03 12.505 12.03 12.505 9 12 C8.96261719 12.87140625 8.92523438 13.7428125 8.88671875 14.640625 C8.43897925 22.75261127 7.27122187 30.20070982 5 38 C4.34 38 3.68 38 3 38 C2.34 39.98 1.68 41.96 1 44 C0.34 43.67 -0.32 43.34 -1 43 C-0.65066406 42.28714844 -0.30132812 41.57429688 0.05859375 40.83984375 C2.57883051 35.53520943 4.66992205 30.94140308 5 25 C5.05027344 24.32710937 5.10054688 23.65421875 5.15234375 22.9609375 C5.51041206 14.85427087 3.07059614 7.4228324 0 0 Z " fill="#C38D47" transform="translate(301,145)"/>
<path d="M0 0 C0 0.99 0 1.98 0 3 C-4.95 5.475 -4.95 5.475 -10 8 C-9.67 8.99 -9.34 9.98 -9 11 C-8.195625 11.268125 -7.39125 11.53625 -6.5625 11.8125 C-4 13 -4 13 -2.6875 16.125 C-2.3471875 17.548125 -2.3471875 17.548125 -2 19 C-1.34 19 -0.68 19 0 19 C0 19.66 0 20.32 0 21 C0.66 21 1.32 21 2 21 C4.44064587 26.64399358 4.19289099 31.97751478 4 38 C3.67 38 3.34 38 3 38 C2.85304688 37.31035156 2.70609375 36.62070313 2.5546875 35.91015625 C-0.26341035 24.10329803 -6.8112816 16.71643581 -15 8 C-11.9377256 5.51372483 -8.8542946 3.90010596 -5.25 2.3125 C-4.26515625 1.87550781 -3.2803125 1.43851563 -2.265625 0.98828125 C-1.14414062 0.49908203 -1.14414062 0.49908203 0 0 Z " fill="#C58C42" transform="translate(286,201)"/>
<path d="M0 0 C0.33 0.99 0.66 1.98 1 3 C1.78375 3.0825 2.5675 3.165 3.375 3.25 C6 4 6 4 7.125 5.875 C7.41375 6.57625 7.7025 7.2775 8 8 C10.03675892 10.89434162 11.06874836 11.01281749 14.6875 11.6875 C15.780625 11.790625 16.87375 11.89375 18 12 C17.67 13.32 17.34 14.64 17 16 C17.99 16.33 18.98 16.66 20 17 C20 18.32 20 19.64 20 21 C11.65202701 18.91300675 6.11555366 13.69630988 1.12890625 6.9296875 C-0.0410363 4.92985491 -0.65156104 3.28693741 -1 1 C-0.67 0.67 -0.34 0.34 0 0 Z " fill="#1E1374" transform="translate(228,172)"/>
<path d="M0 0 C0.66 0 1.32 0 2 0 C3.10228696 4.40914783 3.07654536 8.48382401 3 13 C3.66 13 4.32 13 5 13 C5.226875 14.051875 5.45375 15.10375 5.6875 16.1875 C7.46718814 23.3318596 9.90612817 30.85919226 14 37 C13.67 37.99 13.34 38.98 13 40 C6.23716037 27.76933258 0.45550409 14.12062683 0 0 Z " fill="#BD9157" transform="translate(125,263)"/>
<path d="M0 0 C1.2684375 -0.00515625 2.536875 -0.0103125 3.84375 -0.015625 C7.40390317 0.24301861 10.18745385 0.96178761 13.5 2.25 C13.5 2.91 13.5 3.57 13.5 4.25 C12.99984375 4.08628906 12.4996875 3.92257813 11.984375 3.75390625 C8.5736532 3.0621089 5.21264243 3.14495335 1.75 3.1875 C1.05261719 3.19201172 0.35523438 3.19652344 -0.36328125 3.20117188 C-2.07555803 3.2128998 -3.78779033 3.23083347 -5.5 3.25 C-5.5 3.58 -5.5 3.91 -5.5 4.25 C-7.48 4.25 -9.46 4.25 -11.5 4.25 C-11.5 4.91 -11.5 5.57 -11.5 6.25 C-14.47 5.755 -14.47 5.755 -17.5 5.25 C-12.16822391 0.73849715 -6.84985609 -0.02784494 0 0 Z " fill="#2D2372" transform="translate(258.5,126.75)"/>
<path d="M0 0 C1 3 1 3 0.375 5 C-1.37816584 7.5500594 -3.33271602 8.4492535 -6 10 C-7.68711423 11.6459651 -9.3545622 13.31237149 -11 15 C-14.14129921 17.76053567 -14.58089314 18 -19 18 C-19 18.66 -19 19.32 -19 20 C-21.97 20 -24.94 20 -28 20 C-25.79707663 18.89853832 -23.58428634 17.814087 -21.3359375 16.80859375 C-12.84164053 12.87521877 -5.27015701 7.90523551 0 0 Z " fill="#C0945D" transform="translate(281,272)"/>
<path d="M0 0 C0.66 0.33 1.32 0.66 2 1 C2.0543965 3.37531394 2.09385864 5.74935883 2.125 8.125 C2.14175781 8.79015625 2.15851563 9.4553125 2.17578125 10.140625 C2.21847278 14.49516056 1.59996217 17.95600114 0 22 C-0.66 22 -1.32 22 -2 22 C-2 23.98 -2 25.96 -2 28 C-2.66 28.33 -3.32 28.66 -4 29 C-4.33 29.99 -4.66 30.98 -5 32 C-6.485 32.495 -6.485 32.495 -8 33 C-7.06662887 30.61240331 -6.12743431 28.2603443 -5 25.95703125 C-1.15041083 17.70146699 -0.741693 8.95887077 0 0 Z " fill="#BD8A49" transform="translate(290,239)"/>
<path d="M0 0 C1.65 0 3.3 0 5 0 C2.00418898 5.78838864 -1.64314117 10.22923799 -6.125 14.9375 C-6.75792969 15.62134766 -7.39085937 16.30519531 -8.04296875 17.00976562 C-11.53183719 20.7171513 -11.53183719 20.7171513 -13 22 C-13.66 22 -14.32 22 -15 22 C-15 21.34 -15 20.68 -15 20 C-14.21625 19.4225 -13.4325 18.845 -12.625 18.25 C-9.60192016 15.65878871 -8.95078902 13.80315606 -8 10 C-6.68 10 -5.36 10 -4 10 C-4 9.34 -4 8.68 -4 8 C-3.34 8 -2.68 8 -2 8 C-1.34 5.36 -0.68 2.72 0 0 Z " fill="#C28A41" transform="translate(335,311)"/>
<path d="M0 0 C0.33 1.32 0.66 2.64 1 4 C0.34 4 -0.32 4 -1 4 C-2.79362465 12.74392018 -3.23737365 21.08530089 -3 30 C-3.66 30 -4.32 30 -5 30 C-7.23624141 23.29127578 -7.15862309 14.47168651 -4.91796875 7.7578125 C-2.04500729 2.04500729 -2.04500729 2.04500729 0 0 Z " fill="#2B226A" transform="translate(231,141)"/>
<path d="M0 0 C5.23435005 4.27293882 9.67106815 8.81580806 14 14 C13.34 15.32 12.68 16.64 12 18 C6.42857143 12.85714286 6.42857143 12.85714286 6 9 C5.34 9 4.68 9 4 9 C3.67 8.01 3.34 7.02 3 6 C2.01 6 1.02 6 0 6 C0 4.02 0 2.04 0 0 Z " fill="#C58B44" transform="translate(322,161)"/>
<path d="M0 0 C0.66 0.33 1.32 0.66 2 1 C1.34 2.32 0.68 3.64 0 5 C-1.32 4.67 -2.64 4.34 -4 4 C-3.67 3.01 -3.34 2.02 -3 1 C-6.45411499 1.70079254 -6.45411499 1.70079254 -10 3 C-10.68268138 4.32520503 -11.3507041 5.65812182 -12 7 C-15.125 7.75 -15.125 7.75 -18 8 C-18 7.34 -18 6.68 -18 6 C-12.53617656 1.01409965 -7.36427437 -1.22997394 0 0 Z " fill="#CE8623" transform="translate(152,90)"/>
<path d="M0 0 C1.32 0 2.64 0 4 0 C4.55423996 5.62899961 2.85405659 8.7564422 0 13.375 C-0.3815625 14.01566406 -0.763125 14.65632813 -1.15625 15.31640625 C-2.09250152 16.88462755 -3.04467157 18.44332645 -4 20 C-4.33 20 -4.66 20 -5 20 C-5.39033395 16.58457791 -5.26340185 15.34242241 -3.125 12.5625 C-2.42375 11.716875 -1.7225 10.87125 -1 10 C0.25556887 6.82078213 0.25556887 6.82078213 1 4 C0.34 4 -0.32 4 -1 4 C-0.67 2.68 -0.34 1.36 0 0 Z " fill="#C98735" transform="translate(345,291)"/>
<path d="M0 0 C0 0.99 0 1.98 0 3 C-4.95 5.475 -4.95 5.475 -10 8 C-8.51131714 10.97736572 -7.46121178 12.83438636 -5.375 15.25 C-4.59125 16.1575 -3.8075 17.065 -3 18 C-3.33 18.66 -3.66 19.32 -4 20 C-7.63 16.04 -11.26 12.08 -15 8 C-11.6662739 5.49970542 -9.00174506 3.96505437 -5.25 2.3125 C-4.26515625 1.87550781 -3.2803125 1.43851563 -2.265625 0.98828125 C-1.14414062 0.49908203 -1.14414062 0.49908203 0 0 Z " fill="#B9935F" transform="translate(286,201)"/>
<path d="M0 0 C5.3259184 6.05218 5.22708964 12.74761074 5.265625 20.42578125 C5 23 5 23 3 25 C2.92652344 23.7315625 2.92652344 23.7315625 2.8515625 22.4375 C2.429129 16.02816409 1.68712813 10.18613648 0 4 C0 2.68 0 1.36 0 0 Z " fill="#3E3771" transform="translate(288,144)"/>
<path d="M0 0 C-7.940849 3.56462961 -15.27628974 5.10491765 -24 4 C-24.66 3.34 -25.32 2.68 -26 2 C-24.64455078 1.90912109 -24.64455078 1.90912109 -23.26171875 1.81640625 C-22.08222656 1.73261719 -20.90273437 1.64882812 -19.6875 1.5625 C-17.92986328 1.44068359 -17.92986328 1.44068359 -16.13671875 1.31640625 C-12.97409042 1.1132629 -12.97409042 1.1132629 -10 0 C-3.48837209 -1.1627907 -3.48837209 -1.1627907 0 0 Z " fill="#373075" transform="translate(275,191)"/>
<path d="M0 0 C0.33 0.99 0.66 1.98 1 3 C-0.5972606 4.81901911 -2.2021871 6.63009734 -3.8125 8.4375 C-4.26431641 8.95376953 -4.71613281 9.47003906 -5.18164062 10.00195312 C-7.43034335 12.51327806 -8.74549181 13.91516394 -12 15 C-12.33 13.68 -12.66 12.36 -13 11 C-12.195625 10.87625 -11.39125 10.7525 -10.5625 10.625 C-9.716875 10.41875 -8.87125 10.2125 -8 10 C-7.67 9.34 -7.34 8.68 -7 8 C-6.34 8 -5.68 8 -5 8 C-5.33 6.02 -5.66 4.04 -6 2 C-3.50907189 0.75453595 -2.58919267 1.2232422 0 2 C0 1.34 0 0.68 0 0 Z " fill="#2B226B" transform="translate(288,175)"/>
<path d="M0 0 C2.31 0 4.62 0 7 0 C3.88691765 2.54571003 0.76474006 4.13283929 -2.9375 5.6875 C-3.95714844 6.12449219 -4.97679687 6.56148438 -6.02734375 7.01171875 C-8.9085136 7.96958468 -10.99434869 8.20480497 -14 8 C-14.33 7.34 -14.66 6.68 -15 6 C-11.7 5.67 -8.4 5.34 -5 5 C-5 4.34 -5 3.68 -5 3 C-4.360625 2.87625 -3.72125 2.7525 -3.0625 2.625 C-2.381875 2.41875 -1.70125 2.2125 -1 2 C-0.67 1.34 -0.34 0.68 0 0 Z " fill="#C9862C" transform="translate(289,348)"/>
<path d="M0 0 C2.76276177 0.52268466 5.3260876 1.10869587 8 2 C8 2.66 8 3.32 8 4 C9.32 4.33 10.64 4.66 12 5 C12 5.99 12 6.98 12 8 C13.32 8.66 14.64 9.32 16 10 C15.01 10.495 15.01 10.495 14 11 C12.03701399 9.73636527 10.07975066 8.4638372 8.125 7.1875 C7.03445312 6.47980469 5.94390625 5.77210938 4.8203125 5.04296875 C2 3 2 3 0 0 Z " fill="#C08F4C" transform="translate(166,335)"/>
<path d="M0 0 C1 2 1 2 0.125 5 C-1 8 -1 8 -2 10 C-4.06640625 10.6328125 -4.06640625 10.6328125 -6.5625 11.125 C-7.38878906 11.29257813 -8.21507812 11.46015625 -9.06640625 11.6328125 C-9.70449219 11.75398437 -10.34257812 11.87515625 -11 12 C-10.29875 11.319375 -9.5975 10.63875 -8.875 9.9375 C-5.72065663 6.79219487 -2.86065696 3.4111614 0 0 Z " fill="#C38F43" transform="translate(299,189)"/>
<path d="M0 0 C0 0.66 0 1.32 0 2 C3.63 2.33 7.26 2.66 11 3 C11 3.33 11 3.66 11 4 C3.06603268 4.24923458 -4.2441657 3.70994772 -12 2 C-7.56043724 -0.29632557 -4.94312365 -1.20238143 0 0 Z " fill="#F2EADE" transform="translate(238,289)"/>
<path d="M0 0 C3.79627141 3.54984677 6.67918071 7.22980631 9.375 11.6875 C9.74238281 12.26822266 10.10976563 12.84894531 10.48828125 13.44726562 C11.39379019 14.92512456 12.20561132 16.45955847 13 18 C12.67 18.66 12.34 19.32 12 20 C11.67386719 19.45730469 11.34773438 18.91460937 11.01171875 18.35546875 C10.57472656 17.64003906 10.13773437 16.92460937 9.6875 16.1875 C9.25824219 15.47980469 8.82898438 14.77210938 8.38671875 14.04296875 C7.08460028 11.96618324 7.08460028 11.96618324 5.33203125 10.42578125 C4 9 4 9 4 6 C2.68 5.67 1.36 5.34 0 5 C0 3.35 0 1.7 0 0 Z " fill="#BB9155" transform="translate(336,177)"/>
<path d="M0 0 C1.1446875 -0.01417969 2.289375 -0.02835937 3.46875 -0.04296875 C6.5 0.1875 6.5 0.1875 9.5 2.1875 C-1.39 2.6825 -1.39 2.6825 -12.5 3.1875 C-8.16155417 0.29520278 -5.12196972 0.02883992 0 0 Z " fill="#BA935C" transform="translate(157.5,86.8125)"/>
<path d="M0 0 C2.04650391 3.06975587 2.99704565 5.69084152 4.125 9.1875 C4.47820312 10.27417969 4.83140625 11.36085938 5.1953125 12.48046875 C5.46085938 13.31191406 5.72640625 14.14335937 6 15 C5.01 15.33 4.02 15.66 3 16 C-0.39366878 10.62669111 -0.32712342 6.13053511 0 0 Z " fill="#C29151" transform="translate(193,253)"/>
<path d="M0 0 C0.33 1.32 0.66 2.64 1 4 C0.01 4.33 -0.98 4.66 -2 5 C-2.73323796 7.01508358 -2.73323796 7.01508358 -3 9 C-3.66 9 -4.32 9 -5 9 C-5.12375 10.299375 -5.2475 11.59875 -5.375 12.9375 C-5.5859375 15.15234375 -5.5859375 15.15234375 -6 17 C-6.66 17.33 -7.32 17.66 -8 18 C-7.9639746 10.21851268 -5.47450401 5.47450401 0 0 Z " fill="#BF8F53" transform="translate(133,98)"/>
<path d="M0 0 C6.44262249 0.46855436 11.21283217 2.21643829 17 5 C18.66194738 5.67834587 20.32598903 6.35199575 22 7 C18.66472903 8.13702419 16.91003798 7.88480118 13.671875 6.56640625 C12.87265625 6.24736328 12.0734375 5.92832031 11.25 5.59960938 C10.425 5.25736328 9.6 4.91511719 8.75 4.5625 C7.90953125 4.22412109 7.0690625 3.88574219 6.203125 3.53710938 C4.13117428 2.70126562 2.06396385 1.85533351 0 1 C0 0.67 0 0.34 0 0 Z " fill="#BC9058" transform="translate(191,351)"/>
<path d="M0 0 C0 3 0 3 -1 6 C-1.33 5.67 -1.66 5.34 -2 5 C-2.825 5.28875 -3.65 5.5775 -4.5 5.875 C-8.30795181 7.09898451 -12.11270827 8.0616882 -16 9 C-16 8.34 -16 7.68 -16 7 C-15.18015625 6.66226562 -14.3603125 6.32453125 -13.515625 5.9765625 C-12.43796875 5.53054688 -11.3603125 5.08453125 -10.25 4.625 C-8.64898437 3.96371094 -8.64898437 3.96371094 -7.015625 3.2890625 C-4.62444074 2.26692415 -2.30616817 1.19786405 0 0 Z " fill="#F7F1E5" transform="translate(297,349)"/>
<path d="M0 0 C0.99 0.33 1.98 0.66 3 1 C1 3 1 3 -0.98364258 3.24291992 C-1.77923584 3.23881104 -2.5748291 3.23470215 -3.39453125 3.23046875 C-4.26787109 3.22853516 -5.14121094 3.22660156 -6.04101562 3.22460938 C-6.95560547 3.21236328 -7.87019531 3.20011719 -8.8125 3.1875 C-9.71548828 3.18685547 -10.61847656 3.18621094 -11.54882812 3.18554688 C-15.81415522 3.15734119 -19.84563988 3.0886688 -24 2 C-24 1.67 -24 1.34 -24 1 C-23.30849854 1.00523682 -22.61699707 1.01047363 -21.90454102 1.01586914 C-18.79053648 1.036575 -15.67654639 1.04963963 -12.5625 1.0625 C-11.47388672 1.07087891 -10.38527344 1.07925781 -9.26367188 1.08789062 C-7.71196289 1.09272461 -7.71196289 1.09272461 -6.12890625 1.09765625 C-5.17056885 1.10289307 -4.21223145 1.10812988 -3.22485352 1.11352539 C-1.02714661 1.2505313 -1.02714661 1.2505313 0 0 Z " fill="#C88730" transform="translate(253,292)"/>
<path d="M0 0 C1.9451 2.91765 2.45276317 4.62537285 3 8 C2.01 8 1.02 8 0 8 C-0.66 9.65 -1.32 11.3 -2 13 C-2.66 13 -3.32 13 -4 13 C-3.52140759 11.39566191 -3.04210442 9.79153584 -2.5625 8.1875 C-2.29566406 7.29417969 -2.02882813 6.40085937 -1.75390625 5.48046875 C-1.19612127 3.64526945 -0.60655425 1.81966274 0 0 Z " fill="#F5F0E4" transform="translate(356,277)"/>
<path d="M0 0 C2 3 2 3 1.7578125 5.26171875 C1.54898437 6.06222656 1.34015625 6.86273438 1.125 7.6875 C0.92132813 8.49574219 0.71765625 9.30398437 0.5078125 10.13671875 C0.34023438 10.75160156 0.17265625 11.36648437 0 12 C-1.65 12.33 -3.3 12.66 -5 13 C-3.35 8.71 -1.7 4.42 0 0 Z " fill="#E7E6EE" transform="translate(292,167)"/>
<path d="M0 0 C3.91402949 1.26941497 5.79072873 2.51167694 8 6 C7.01 6 6.02 6 5 6 C5 7.65 5 9.3 5 11 C0 3.5 0 3.5 0 0 Z " fill="#B4996E" transform="translate(301,145)"/>
<path d="M0 0 C2.4375 0.6875 2.4375 0.6875 5 2 C5.8125 4.625 5.8125 4.625 6 7 C6.66 7 7.32 7 8 7 C7.67 8.32 7.34 9.64 7 11 C5.83051998 9.35616456 4.6644855 7.70987731 3.5 6.0625 C2.8503125 5.14597656 2.200625 4.22945313 1.53125 3.28515625 C0 1 0 1 0 0 Z " fill="#F7EFE5" transform="translate(198,266)"/>
<path d="M0 0 C1 3 1 3 0.375 5 C-1.38384128 7.55831459 -3.29202348 8.51706048 -6 10 C-7.34631825 10.98244845 -8.68441297 11.97676564 -10 13 C-10.66 12.67 -11.32 12.34 -12 12 C-11.30132812 11.38511719 -10.60265625 10.77023437 -9.8828125 10.13671875 C-8.51769531 8.92435547 -8.51769531 8.92435547 -7.125 7.6875 C-6.22007812 6.88699219 -5.31515625 6.08648437 -4.3828125 5.26171875 C-1.86787689 3.04188943 -1.86787689 3.04188943 0 0 Z " fill="#B89259" transform="translate(281,272)"/>
<path d="M0 0 C3.2826932 1.49076434 5.93077441 3.38620321 8.75 5.625 C9.94882812 6.57246094 9.94882812 6.57246094 11.171875 7.5390625 C11.77515625 8.02117187 12.3784375 8.50328125 13 9 C9.25 10.125 9.25 10.125 7 9 C6.731875 8.38125 6.46375 7.7625 6.1875 7.125 C4.64778279 4.36971658 2.6887974 3.55667218 0 2 C0 1.34 0 0.68 0 0 Z " fill="#BC8E54" transform="translate(309,151)"/>
<path d="M0 0 C0.66 0.33 1.32 0.66 2 1 C1.01 1.66 0.02 2.32 -1 3 C-1.268125 3.680625 -1.53625 4.36125 -1.8125 5.0625 C-2.204375 5.701875 -2.59625 6.34125 -3 7 C-6.125 7.75 -6.125 7.75 -9 8 C-9 7.34 -9 6.68 -9 6 C-7.03125 4.4921875 -7.03125 4.4921875 -4.5 2.875 C-3.6646875 2.33617188 -2.829375 1.79734375 -1.96875 1.2421875 C-1.3190625 0.83226563 -0.669375 0.42234375 0 0 Z " fill="#BC9051" transform="translate(143,90)"/>
<path d="M0 0 C3.0916909 2.52956528 3.90931332 5.22454612 5 9 C3.125 8.875 3.125 8.875 1 8 C-0.3125 5.0625 -0.3125 5.0625 -1 2 C-0.67 1.34 -0.34 0.68 0 0 Z " fill="#F4F0E7" transform="translate(129,285)"/>
<path d="M0 0 C1.05602687 3.66036382 0.91217967 6.2683559 0 10 C-0.99 10.495 -0.99 10.495 -2 11 C-2.33 11.99 -2.66 12.98 -3 14 C-3.99 14.33 -4.98 14.66 -6 15 C-4 10 -2 5 0 0 Z " fill="#BD9558" transform="translate(288,257)"/>
<path d="M0 0 C0.66 0.99 1.32 1.98 2 3 C-0.97 5.475 -0.97 5.475 -4 8 C-4.99 7.34 -5.98 6.68 -7 6 C-4.69 4.02 -2.38 2.04 0 0 Z " fill="#251D6B" transform="translate(240,132)"/>
<path d="M0 0 C0.99 0.33 1.98 0.66 3 1 C-1.08806189 4.84616474 -4.40717158 7.63589551 -10 9 C-9 6 -9 6 -7.1875 4.90234375 C-6.465625 4.58394531 -5.74375 4.26554687 -5 3.9375 C-1.8485304 2.67769923 -1.8485304 2.67769923 0 0 Z " fill="#BD8E4C" transform="translate(317,333)"/>
<path d="M0 0 C0.99 0 1.98 0 3 0 C4.421875 1.6796875 4.421875 1.6796875 5.75 3.875 C6.19859375 4.59429687 6.6471875 5.31359375 7.109375 6.0546875 C7.40328125 6.69664062 7.6971875 7.33859375 8 8 C7.67 8.66 7.34 9.32 7 10 C6.01524786 8.90081184 5.03739527 7.7954398 4.0625 6.6875 C3.51722656 6.07261719 2.97195312 5.45773437 2.41015625 4.82421875 C1 3 1 3 0 0 Z " fill="#BD9152" transform="translate(144,311)"/>
<path d="M0 0 C0.97608217 2.92824652 1.08226668 4.95613276 1 8 C0.34 8 -0.32 8 -1 8 C-1.33 8.99 -1.66 9.98 -2 11 C-2.99 10.67 -3.98 10.34 -5 10 C-3.35 6.7 -1.7 3.4 0 0 Z " fill="#F2EEE2" transform="translate(351,291)"/>
<path d="M0 0 C2.8125 0.1875 2.8125 0.1875 6 1 C7.9375 3.4375 7.9375 3.4375 9 6 C8.67 6.66 8.34 7.32 8 8 C6.66372225 6.85760183 5.33104612 5.71098945 4 4.5625 C3.2575 3.92441406 2.515 3.28632813 1.75 2.62890625 C1.1725 2.09136719 0.595 1.55382812 0 1 C0 0.67 0 0.34 0 0 Z " fill="#BF9050" transform="translate(157,327)"/>
<path d="M0 0 C2.97 0.33 5.94 0.66 9 1 C9 2.32 9 3.64 9 5 C4.89198233 3.81323934 3.10551666 3.10551666 0 0 Z " fill="#2E2571" transform="translate(239,188)"/>
<path d="M0 0 C0.66 0.33 1.32 0.66 2 1 C0.54782324 2.50596108 -0.91192861 4.00462104 -2.375 5.5 C-3.18710937 6.3353125 -3.99921875 7.170625 -4.8359375 8.03125 C-7 10 -7 10 -9 10 C-9 9.34 -9 8.68 -9 8 C-7.3603279 6.63360658 -5.68889872 5.3050581 -4 4 C-2.64852862 2.68505488 -1.30887458 1.35735142 0 0 Z " fill="#BF9663" transform="translate(329,323)"/>
<path d="M0 0 C0.66 0 1.32 0 2 0 C1.84518205 2.70931419 1.51827919 4.46584039 -0.40234375 6.4453125 C-1.89771708 7.67679642 -3.4462924 8.8429837 -5 10 C-4.67 8.68 -4.34 7.36 -4 6 C-3.34 6 -2.68 6 -2 6 C-1.34 4.02 -0.68 2.04 0 0 Z " fill="#C8862C" transform="translate(304,183)"/>
<path d="M0 0 C2.81645906 3.18382329 3.72317437 5.75534029 4 10 C3.34 10.66 2.68 11.32 2 12 C0.86235649 7.73383684 0 4.43513689 0 0 Z " fill="#38307B" transform="translate(288,144)"/>
<path d="M0 0 C3.375 0.25 3.375 0.25 7 1 C8.4375 3.0625 8.4375 3.0625 9 5 C5.22454612 3.90931332 2.52956528 3.0916909 0 0 Z " fill="#BD8F50" transform="translate(182,346)"/>
<path d="M0 0 C0.66 0.33 1.32 0.66 2 1 C2 1.66 2 2.32 2 3 C2.99 2.67 3.98 2.34 5 2 C5.66 2.66 6.32 3.32 7 4 C6.01 4.495 6.01 4.495 5 5 C5 5.66 5 6.32 5 7 C1.83884224 5.63016497 1.0072908 5.0109362 -1 2 C-0.67 1.34 -0.34 0.68 0 0 Z " fill="#332879" transform="translate(234,181)"/>
<path d="M0 0 C0 0.99 0 1.98 0 3 C0.66 3 1.32 3 2 3 C2.33 2.34 2.66 1.68 3 1 C3.33 2.65 3.66 4.3 4 6 C1 6 1 6 -1.6875 3.5 C-2.450625 2.675 -3.21375 1.85 -4 1 C-2 0 -2 0 0 0 Z " fill="#F5F1E8" transform="translate(316,151)"/>
<path d="M0 0 C0.66 0 1.32 0 2 0 C0.6302836 3.99500618 -1.25722422 6.80009492 -4 10 C-4.4025937 6.47730515 -4.13372795 5.20059192 -2.125 2.1875 C-1.42375 1.465625 -0.7225 0.74375 0 0 Z " fill="#BF8F51" transform="translate(344,301)"/>
<path d="M0 0 C1.12377697 3.30435084 0.89554742 5.0506862 -0.4375 8.25 C-0.72496094 8.95640625 -1.01242187 9.6628125 -1.30859375 10.390625 C-1.53675781 10.92171875 -1.76492188 11.4528125 -2 12 C-2.33 12 -2.66 12 -3 12 C-3.2954439 6.97745369 -2.98514628 4.10457614 0 0 Z " fill="#F7EDE0" transform="translate(288,253)"/>
<path d="M0 0 C2.56616632 3.84924948 2.55097676 6.4349304 3 11 C2.01 10.34 1.02 9.68 0 9 C-0.29296875 6.8359375 -0.29296875 6.8359375 -0.1875 4.375 C-0.16042969 3.55773437 -0.13335937 2.74046875 -0.10546875 1.8984375 C-0.05326172 0.95871094 -0.05326172 0.95871094 0 0 Z " fill="#C6862B" transform="translate(354,212)"/>
<path d="M0 0 C1.29640378 0.59393382 2.58698839 1.20057989 3.875 1.8125 C4.59429687 2.14894531 5.31359375 2.48539063 6.0546875 2.83203125 C8 4 8 4 10 7 C9.01 7.495 9.01 7.495 8 8 C7.67 7.34 7.34 6.68 7 6 C5.35636866 5.27840576 3.68949614 4.60648579 2 4 C2 3.34 2 2.68 2 2 C1.34 2 0.68 2 0 2 C0 1.34 0 0.68 0 0 Z " fill="#342C70" transform="translate(273,130)"/>
<path d="M0 0 C-0.625 1.9375 -0.625 1.9375 -2 4 C-5.125 4.75 -5.125 4.75 -8 5 C-7.34 4.67 -6.68 4.34 -6 4 C-6 3.34 -6 2.68 -6 2 C-3 0 -3 0 0 0 Z " fill="#C08B3F" transform="translate(270,285)"/>
<path d="M0 0 C0 2 0 4 0 6 C-2.31 6.33 -4.62 6.66 -7 7 C-4.66666667 4.66666667 -2.33333333 2.33333333 0 0 Z " fill="#C88527" transform="translate(277,279)"/>
<path d="M0 0 C0.33 0.99 0.66 1.98 1 3 C0.34 3.66 -0.32 4.32 -1 5 C-3.625 4.625 -3.625 4.625 -6 4 C-5.67 3.01 -5.34 2.02 -5 1 C-3.35 1.33 -1.7 1.66 0 2 C0 1.34 0 0.68 0 0 Z " fill="#261B76" transform="translate(288,175)"/>
<path d="M0 0 C1.32 0.66 2.64 1.32 4 2 C4 3.32 4 4.64 4 6 C2.02 4.68 0.04 3.36 -2 2 C-1.34 1.34 -0.68 0.68 0 0 Z " fill="#F3EDE1" transform="translate(178,91)"/>
<path d="M0 0 C4.95 1.98 4.95 1.98 10 4 C5.59232396 5.10191901 4.1077065 4.58706842 0 3 C0 2.01 0 1.02 0 0 Z " fill="#F9EDDF" transform="translate(188,350)"/>
<path d="M0 0 C3.375 0.25 3.375 0.25 7 1 C8.4375 3.0625 8.4375 3.0625 9 5 C5.54074837 3.7508258 2.85306797 2.32472205 0 0 Z " fill="#F9EFE4" transform="translate(214,284)"/>
<path d="M0 0 C2.03833424 1.2739589 4.03852126 2.61061923 6 4 C6 4.66 6 5.32 6 6 C5.01 6.33 4.02 6.66 3 7 C2.34 6.67 1.68 6.34 1 6 C0.375 2.9375 0.375 2.9375 0 0 Z " fill="#CA8528" transform="translate(205,279)"/>
<path d="M0 0 C0.33 1.32 0.66 2.64 1 4 C0.01 4 -0.98 4 -2 4 C-2 4.66 -2 5.32 -2 6 C-3.65 6.33 -5.3 6.66 -7 7 C-4.66666667 4.66666667 -2.33333333 2.33333333 0 0 Z " fill="#BE9A61" transform="translate(295,194)"/>
<path d="M0 0 C1.98 1.65 3.96 3.3 6 5 C3 6 3 6 0 6 C0 4.02 0 2.04 0 0 Z " fill="#C09557" transform="translate(322,161)"/>
<path d="M0 0 C-2.97 0.66 -5.94 1.32 -9 2 C-8.67 1.01 -8.34 0.02 -8 -1 C-4.40321889 -2.61235015 -3.79177789 -1.89588895 0 0 Z " fill="#C58629" transform="translate(295,202)"/>
<path d="M0 0 C1.32 0.33 2.64 0.66 4 1 C3.67 2.32 3.34 3.64 3 5 C0.525 4.01 0.525 4.01 -2 3 C-1.34 2.67 -0.68 2.34 0 2 C0 1.34 0 0.68 0 0 Z " fill="#CA882E" transform="translate(180,98)"/>
</svg>
